<mxfile host="app.diagrams.net" modified="2023-10-13T17:51:16.475Z" agent="Mozilla/5.0 (Windows NT 10.0; Win64; x64) AppleWebKit/537.36 (KHTML, like Gecko) Chrome/117.0.0.0 Safari/537.36" etag="1TtJ1rEhPGPvvi-TVYvs" version="22.0.4" type="google">
  <diagram id="R2lEEEUBdFMjLlhIrx00" name="Page-1">
    <mxGraphModel dx="2100" dy="1162" grid="1" gridSize="10" guides="1" tooltips="1" connect="1" arrows="1" fold="1" page="1" pageScale="1" pageWidth="1654" pageHeight="1169" math="0" shadow="0" extFonts="Permanent Marker^https://fonts.googleapis.com/css?family=Permanent+Marker">
      <root>
        <mxCell id="0" />
        <mxCell id="1" parent="0" />
        <mxCell id="l1qlM_hG5PVcN0XE2cs9-1" value="Film" style="whiteSpace=wrap;html=1;align=center;rounded=1;" vertex="1" parent="1">
          <mxGeometry x="790" y="340" width="100" height="40" as="geometry" />
        </mxCell>
        <mxCell id="lc_thMG3hRJmn10JfuWX-1" value="Genere" style="whiteSpace=wrap;html=1;align=center;" vertex="1" parent="1">
          <mxGeometry x="1027" y="430" width="100" height="40" as="geometry" />
        </mxCell>
        <mxCell id="l1qlM_hG5PVcN0XE2cs9-2" value="Ruolo" style="whiteSpace=wrap;html=1;align=center;rounded=1;" vertex="1" parent="1">
          <mxGeometry x="1157" y="80" width="100" height="40" as="geometry" />
        </mxCell>
        <mxCell id="l1qlM_hG5PVcN0XE2cs9-44" style="edgeStyle=orthogonalEdgeStyle;rounded=1;orthogonalLoop=1;jettySize=auto;html=1;exitX=0;exitY=1;exitDx=0;exitDy=0;entryX=1;entryY=0.5;entryDx=0;entryDy=0;endArrow=none;endFill=0;" edge="1" parent="1" source="lc_thMG3hRJmn10JfuWX-2" target="l1qlM_hG5PVcN0XE2cs9-43">
          <mxGeometry relative="1" as="geometry" />
        </mxCell>
        <mxCell id="lc_thMG3hRJmn10JfuWX-2" value="Utente" style="whiteSpace=wrap;html=1;align=center;rounded=1;" vertex="1" parent="1">
          <mxGeometry x="1027" y="740" width="100" height="40" as="geometry" />
        </mxCell>
        <mxCell id="l1qlM_hG5PVcN0XE2cs9-3" value="Paese" style="whiteSpace=wrap;html=1;align=center;" vertex="1" parent="1">
          <mxGeometry x="660" y="870" width="100" height="40" as="geometry" />
        </mxCell>
        <mxCell id="l1qlM_hG5PVcN0XE2cs9-4" value="Lingua" style="whiteSpace=wrap;html=1;align=center;" vertex="1" parent="1">
          <mxGeometry x="470" y="860" width="100" height="40" as="geometry" />
        </mxCell>
        <mxCell id="lc_thMG3hRJmn10JfuWX-3" value="Server" style="whiteSpace=wrap;html=1;align=center;" vertex="1" parent="1">
          <mxGeometry x="470" y="630" width="100" height="40" as="geometry" />
        </mxCell>
        <mxCell id="lc_thMG3hRJmn10JfuWX-6" value="Restrizioni" style="whiteSpace=wrap;html=1;align=center;" vertex="1" parent="1">
          <mxGeometry x="130" y="477.5" width="100" height="40" as="geometry" />
        </mxCell>
        <mxCell id="l1qlM_hG5PVcN0XE2cs9-5" value="Connessione" style="whiteSpace=wrap;html=1;align=center;" vertex="1" parent="1">
          <mxGeometry x="690" y="980" width="100" height="40" as="geometry" />
        </mxCell>
        <mxCell id="l1qlM_hG5PVcN0XE2cs9-6" value="Abbonamento" style="whiteSpace=wrap;html=1;align=center;rounded=1;" vertex="1" parent="1">
          <mxGeometry x="1400" y="255" width="100" height="40" as="geometry" />
        </mxCell>
        <mxCell id="lc_thMG3hRJmn10JfuWX-5" value="Formato" style="whiteSpace=wrap;html=1;align=center;" vertex="1" parent="1">
          <mxGeometry x="225" y="180" width="100" height="30" as="geometry" />
        </mxCell>
        <mxCell id="lc_thMG3hRJmn10JfuWX-8" value="Fattura" style="whiteSpace=wrap;html=1;align=center;rounded=1;" vertex="1" parent="1">
          <mxGeometry x="1157" y="430" width="100" height="40" as="geometry" />
        </mxCell>
        <mxCell id="lc_thMG3hRJmn10JfuWX-9" value="Metodo Pagamento&lt;br&gt;" style="whiteSpace=wrap;html=1;align=center;direction=east;" vertex="1" parent="1">
          <mxGeometry x="1310" y="840" width="100" height="40" as="geometry" />
        </mxCell>
        <mxCell id="l1qlM_hG5PVcN0XE2cs9-7" value="PayPal" style="whiteSpace=wrap;html=1;align=center;direction=east;rounded=1;" vertex="1" parent="1">
          <mxGeometry x="1420" y="980" width="100" height="40" as="geometry" />
        </mxCell>
        <mxCell id="lc_thMG3hRJmn10JfuWX-10" value="Carta" style="whiteSpace=wrap;html=1;align=center;direction=east;rounded=1;" vertex="1" parent="1">
          <mxGeometry x="1420" y="735" width="100" height="30" as="geometry" />
        </mxCell>
        <mxCell id="l1qlM_hG5PVcN0XE2cs9-8" value="Attore" style="whiteSpace=wrap;html=1;align=center;rounded=1;" vertex="1" parent="1">
          <mxGeometry x="1070" y="200" width="100" height="40" as="geometry" />
        </mxCell>
        <mxCell id="l1qlM_hG5PVcN0XE2cs9-9" value="Regista" style="whiteSpace=wrap;html=1;align=center;rounded=1;" vertex="1" parent="1">
          <mxGeometry x="1240" y="200" width="100" height="40" as="geometry" />
        </mxCell>
        <mxCell id="l1qlM_hG5PVcN0XE2cs9-10" value="" style="endArrow=none;html=1;rounded=1;entryX=0.5;entryY=0;entryDx=0;entryDy=0;" edge="1" parent="1" target="l1qlM_hG5PVcN0XE2cs9-9">
          <mxGeometry width="50" height="50" relative="1" as="geometry">
            <mxPoint x="1120" y="200" as="sourcePoint" />
            <mxPoint x="1290" y="200" as="targetPoint" />
            <Array as="points">
              <mxPoint x="1120" y="170" />
              <mxPoint x="1200" y="170" />
              <mxPoint x="1290" y="170" />
            </Array>
          </mxGeometry>
        </mxCell>
        <mxCell id="l1qlM_hG5PVcN0XE2cs9-11" value="" style="shape=flexArrow;endArrow=classic;html=1;rounded=0;fillColor=#000000;" edge="1" parent="1">
          <mxGeometry width="50" height="50" relative="1" as="geometry">
            <mxPoint x="1204.69" y="170" as="sourcePoint" />
            <mxPoint x="1204.69" y="120" as="targetPoint" />
          </mxGeometry>
        </mxCell>
        <mxCell id="lc_thMG3hRJmn10JfuWX-23" value="" style="shape=flexArrow;endArrow=classic;html=1;rounded=0;fillColor=#000000;entryX=1;entryY=0.5;entryDx=0;entryDy=0;" edge="1" parent="1" target="lc_thMG3hRJmn10JfuWX-9">
          <mxGeometry width="50" height="50" relative="1" as="geometry">
            <mxPoint x="1470" y="860" as="sourcePoint" />
            <mxPoint x="1470" y="820" as="targetPoint" />
            <Array as="points" />
          </mxGeometry>
        </mxCell>
        <mxCell id="lc_thMG3hRJmn10JfuWX-24" value="FormatoAudio" style="whiteSpace=wrap;html=1;align=center;" vertex="1" parent="1">
          <mxGeometry x="155" y="50" width="100" height="40" as="geometry" />
        </mxCell>
        <mxCell id="l1qlM_hG5PVcN0XE2cs9-14" value="Formato Video" style="whiteSpace=wrap;html=1;align=center;" vertex="1" parent="1">
          <mxGeometry x="285" y="50" width="100" height="40" as="geometry" />
        </mxCell>
        <mxCell id="lc_thMG3hRJmn10JfuWX-29" value="" style="shape=flexArrow;endArrow=classic;html=1;rounded=0;fillColor=#000000;" edge="1" parent="1">
          <mxGeometry width="50" height="50" relative="1" as="geometry">
            <mxPoint x="274.5799999999999" y="130" as="sourcePoint" />
            <mxPoint x="274.5799999999999" y="180" as="targetPoint" />
          </mxGeometry>
        </mxCell>
        <mxCell id="l1qlM_hG5PVcN0XE2cs9-16" value="" style="endArrow=none;html=1;rounded=1;exitX=0.5;exitY=1;exitDx=0;exitDy=0;" edge="1" parent="1">
          <mxGeometry width="50" height="50" relative="1" as="geometry">
            <mxPoint x="335" y="90" as="sourcePoint" />
            <mxPoint x="205" y="90" as="targetPoint" />
            <Array as="points">
              <mxPoint x="335" y="130" />
              <mxPoint x="265" y="130" />
              <mxPoint x="205" y="130" />
            </Array>
          </mxGeometry>
        </mxCell>
        <mxCell id="l1qlM_hG5PVcN0XE2cs9-19" value="" style="endArrow=none;html=1;rounded=1;exitX=0.5;exitY=0;exitDx=0;exitDy=0;entryX=0.5;entryY=0;entryDx=0;entryDy=0;" edge="1" parent="1" source="l1qlM_hG5PVcN0XE2cs9-18" target="lc_thMG3hRJmn10JfuWX-2">
          <mxGeometry width="50" height="50" relative="1" as="geometry">
            <mxPoint x="930" y="720" as="sourcePoint" />
            <mxPoint x="980" y="670" as="targetPoint" />
            <Array as="points">
              <mxPoint x="920" y="700" />
              <mxPoint x="1010" y="700" />
              <mxPoint x="1077" y="700" />
            </Array>
          </mxGeometry>
        </mxCell>
        <mxCell id="l1qlM_hG5PVcN0XE2cs9-18" value="Critico" style="whiteSpace=wrap;html=1;align=center;rounded=1;" vertex="1" parent="1">
          <mxGeometry x="870" y="740" width="100" height="40" as="geometry" />
        </mxCell>
        <mxCell id="l1qlM_hG5PVcN0XE2cs9-20" value="" style="shape=flexArrow;endArrow=classic;html=1;rounded=0;fillColor=#000000;" edge="1" parent="1">
          <mxGeometry width="50" height="50" relative="1" as="geometry">
            <mxPoint x="1000" y="700" as="sourcePoint" />
            <mxPoint x="1000" y="650" as="targetPoint" />
          </mxGeometry>
        </mxCell>
        <mxCell id="a_6csDNS0PU0sw6D-ZlP-1" value="Persona" style="whiteSpace=wrap;html=1;align=center;rounded=1;" vertex="1" parent="1">
          <mxGeometry x="950" y="610" width="100" height="40" as="geometry" />
        </mxCell>
        <mxCell id="l1qlM_hG5PVcN0XE2cs9-21" value="Recitazione" style="shape=rhombus;perimeter=rhombusPerimeter;whiteSpace=wrap;html=1;align=center;" vertex="1" parent="1">
          <mxGeometry x="930" y="270" width="120" height="60" as="geometry" />
        </mxCell>
        <mxCell id="a_6csDNS0PU0sw6D-ZlP-5" value="Preferenza" style="shape=rhombus;perimeter=rhombusPerimeter;whiteSpace=wrap;html=1;align=center;" vertex="1" parent="1">
          <mxGeometry x="1160" y="960" width="120" height="60" as="geometry" />
        </mxCell>
        <mxCell id="a_6csDNS0PU0sw6D-ZlP-10" value="" style="endArrow=none;html=1;rounded=0;exitX=0.5;exitY=0;exitDx=0;exitDy=0;entryX=0.5;entryY=1;entryDx=0;entryDy=0;" edge="1" parent="1" source="l1qlM_hG5PVcN0XE2cs9-7" target="lc_thMG3hRJmn10JfuWX-10">
          <mxGeometry width="50" height="50" relative="1" as="geometry">
            <mxPoint x="1240" y="710" as="sourcePoint" />
            <mxPoint x="1530" y="750" as="targetPoint" />
            <Array as="points" />
          </mxGeometry>
        </mxCell>
        <mxCell id="l1qlM_hG5PVcN0XE2cs9-25" value="" style="endArrow=none;html=1;rounded=1;entryX=0.5;entryY=1;entryDx=0;entryDy=0;" edge="1" parent="1" target="l1qlM_hG5PVcN0XE2cs9-8">
          <mxGeometry relative="1" as="geometry">
            <mxPoint x="1050" y="300" as="sourcePoint" />
            <mxPoint x="1170" y="299.64" as="targetPoint" />
            <Array as="points">
              <mxPoint x="1120" y="300" />
            </Array>
          </mxGeometry>
        </mxCell>
        <mxCell id="a_6csDNS0PU0sw6D-ZlP-17" value="Pagamento&lt;br&gt;" style="shape=rhombus;perimeter=rhombusPerimeter;whiteSpace=wrap;html=1;align=center;" vertex="1" parent="1">
          <mxGeometry x="1420" y="495" width="120" height="60" as="geometry" />
        </mxCell>
        <mxCell id="l1qlM_hG5PVcN0XE2cs9-27" value="" style="group" vertex="1" connectable="0" parent="1">
          <mxGeometry x="1037" y="270" width="53" height="30" as="geometry" />
        </mxCell>
        <mxCell id="l1qlM_hG5PVcN0XE2cs9-26" value="(1, N)" style="text;html=1;align=center;verticalAlign=middle;resizable=0;points=[];autosize=1;strokeColor=none;fillColor=none;" vertex="1" parent="l1qlM_hG5PVcN0XE2cs9-27">
          <mxGeometry x="-10" width="50" height="30" as="geometry" />
        </mxCell>
        <mxCell id="l1qlM_hG5PVcN0XE2cs9-29" value="" style="endArrow=none;html=1;rounded=1;exitX=0.5;exitY=0;exitDx=0;exitDy=0;entryX=0;entryY=0.5;entryDx=0;entryDy=0;" edge="1" parent="1" source="l1qlM_hG5PVcN0XE2cs9-1" target="l1qlM_hG5PVcN0XE2cs9-21">
          <mxGeometry relative="1" as="geometry">
            <mxPoint x="830" y="299" as="sourcePoint" />
            <mxPoint x="930" y="300" as="targetPoint" />
            <Array as="points">
              <mxPoint x="840" y="300" />
            </Array>
          </mxGeometry>
        </mxCell>
        <mxCell id="a_6csDNS0PU0sw6D-ZlP-16" value="Fatturazione" style="shape=rhombus;perimeter=rhombusPerimeter;whiteSpace=wrap;html=1;align=center;" vertex="1" parent="1">
          <mxGeometry x="1147" y="600" width="120" height="60" as="geometry" />
        </mxCell>
        <mxCell id="l1qlM_hG5PVcN0XE2cs9-30" value="(1, N)" style="text;html=1;align=center;verticalAlign=middle;resizable=0;points=[];autosize=1;strokeColor=none;fillColor=none;" vertex="1" parent="1">
          <mxGeometry x="900" y="300" width="50" height="30" as="geometry" />
        </mxCell>
        <mxCell id="a_6csDNS0PU0sw6D-ZlP-22" value="" style="endArrow=none;html=1;rounded=1;entryX=0.5;entryY=0;entryDx=0;entryDy=0;exitX=1;exitY=0.5;exitDx=0;exitDy=0;" edge="1" parent="1" source="lc_thMG3hRJmn10JfuWX-8" target="a_6csDNS0PU0sw6D-ZlP-17">
          <mxGeometry relative="1" as="geometry">
            <mxPoint x="1257" y="469.47" as="sourcePoint" />
            <mxPoint x="1417" y="469.47" as="targetPoint" />
            <Array as="points">
              <mxPoint x="1480" y="450" />
            </Array>
          </mxGeometry>
        </mxCell>
        <mxCell id="a_6csDNS0PU0sw6D-ZlP-23" value="(1, 1)" style="text;html=1;align=center;verticalAlign=middle;resizable=0;points=[];autosize=1;strokeColor=none;fillColor=none;" vertex="1" parent="1">
          <mxGeometry x="1430" y="470" width="50" height="30" as="geometry" />
        </mxCell>
        <mxCell id="a_6csDNS0PU0sw6D-ZlP-25" value="(1, 1)" style="text;html=1;align=center;verticalAlign=middle;resizable=0;points=[];autosize=1;strokeColor=none;fillColor=none;" vertex="1" parent="1">
          <mxGeometry x="1430" y="550" width="50" height="30" as="geometry" />
        </mxCell>
        <mxCell id="l1qlM_hG5PVcN0XE2cs9-31" value="Regia" style="shape=rhombus;perimeter=rhombusPerimeter;whiteSpace=wrap;html=1;align=center;" vertex="1" parent="1">
          <mxGeometry x="1230" y="330" width="120" height="60" as="geometry" />
        </mxCell>
        <mxCell id="a_6csDNS0PU0sw6D-ZlP-27" value="" style="endArrow=none;html=1;rounded=1;exitX=0.5;exitY=0;exitDx=0;exitDy=0;" edge="1" parent="1" source="lc_thMG3hRJmn10JfuWX-9" target="a_6csDNS0PU0sw6D-ZlP-17">
          <mxGeometry relative="1" as="geometry">
            <mxPoint x="1090" y="630" as="sourcePoint" />
            <mxPoint x="1250" y="630" as="targetPoint" />
            <Array as="points">
              <mxPoint x="1360" y="640" />
              <mxPoint x="1480" y="640" />
            </Array>
          </mxGeometry>
        </mxCell>
        <mxCell id="a_6csDNS0PU0sw6D-ZlP-29" value="" style="endArrow=none;html=1;rounded=0;exitX=0.5;exitY=1;exitDx=0;exitDy=0;entryX=0.5;entryY=0;entryDx=0;entryDy=0;" edge="1" parent="1" source="lc_thMG3hRJmn10JfuWX-8" target="a_6csDNS0PU0sw6D-ZlP-16">
          <mxGeometry relative="1" as="geometry">
            <mxPoint x="1090" y="600" as="sourcePoint" />
            <mxPoint x="1207" y="530" as="targetPoint" />
          </mxGeometry>
        </mxCell>
        <mxCell id="a_6csDNS0PU0sw6D-ZlP-31" value="" style="endArrow=none;html=1;rounded=1;exitX=1;exitY=0.5;exitDx=0;exitDy=0;entryX=0.5;entryY=1;entryDx=0;entryDy=0;" edge="1" parent="1" source="lc_thMG3hRJmn10JfuWX-2" target="a_6csDNS0PU0sw6D-ZlP-16">
          <mxGeometry relative="1" as="geometry">
            <mxPoint x="1090" y="600" as="sourcePoint" />
            <mxPoint x="1250" y="600" as="targetPoint" />
            <Array as="points">
              <mxPoint x="1207" y="760" />
            </Array>
          </mxGeometry>
        </mxCell>
        <mxCell id="a_6csDNS0PU0sw6D-ZlP-32" value="(1, 1)" style="text;html=1;align=center;verticalAlign=middle;resizable=0;points=[];autosize=1;strokeColor=none;fillColor=none;" vertex="1" parent="1">
          <mxGeometry x="1205" y="580" width="50" height="30" as="geometry" />
        </mxCell>
        <mxCell id="l1qlM_hG5PVcN0XE2cs9-32" value="" style="endArrow=none;html=1;rounded=1;entryX=0.5;entryY=1;entryDx=0;entryDy=0;exitX=0.5;exitY=0;exitDx=0;exitDy=0;" edge="1" parent="1" source="l1qlM_hG5PVcN0XE2cs9-31" target="l1qlM_hG5PVcN0XE2cs9-9">
          <mxGeometry relative="1" as="geometry">
            <mxPoint x="1160" y="284.58" as="sourcePoint" />
            <mxPoint x="1320" y="284.58" as="targetPoint" />
          </mxGeometry>
        </mxCell>
        <mxCell id="a_6csDNS0PU0sw6D-ZlP-33" value="(1, N)" style="text;html=1;align=center;verticalAlign=middle;resizable=0;points=[];autosize=1;strokeColor=none;fillColor=none;" vertex="1" parent="1">
          <mxGeometry x="1207" y="650" width="50" height="30" as="geometry" />
        </mxCell>
        <mxCell id="l1qlM_hG5PVcN0XE2cs9-33" value="" style="endArrow=none;html=1;rounded=1;exitX=1;exitY=0.5;exitDx=0;exitDy=0;entryX=0;entryY=0.5;entryDx=0;entryDy=0;" edge="1" parent="1" source="l1qlM_hG5PVcN0XE2cs9-1" target="l1qlM_hG5PVcN0XE2cs9-31">
          <mxGeometry relative="1" as="geometry">
            <mxPoint x="950" y="370" as="sourcePoint" />
            <mxPoint x="1110" y="370" as="targetPoint" />
          </mxGeometry>
        </mxCell>
        <mxCell id="a_6csDNS0PU0sw6D-ZlP-35" value="" style="endArrow=none;html=1;rounded=1;entryX=0.5;entryY=1;entryDx=0;entryDy=0;exitX=1;exitY=0.5;exitDx=0;exitDy=0;" edge="1" parent="1" source="a_6csDNS0PU0sw6D-ZlP-5" target="lc_thMG3hRJmn10JfuWX-9">
          <mxGeometry relative="1" as="geometry">
            <mxPoint x="1090" y="960" as="sourcePoint" />
            <mxPoint x="1250" y="960" as="targetPoint" />
            <Array as="points">
              <mxPoint x="1360" y="990" />
            </Array>
          </mxGeometry>
        </mxCell>
        <mxCell id="a_6csDNS0PU0sw6D-ZlP-36" value="(1, 1)" style="text;html=1;align=center;verticalAlign=middle;resizable=0;points=[];autosize=1;strokeColor=none;fillColor=none;" vertex="1" parent="1">
          <mxGeometry x="1257" y="960" width="50" height="30" as="geometry" />
        </mxCell>
        <mxCell id="l1qlM_hG5PVcN0XE2cs9-35" value="(1, 1)" style="text;html=1;align=center;verticalAlign=middle;resizable=0;points=[];autosize=1;strokeColor=none;fillColor=none;" vertex="1" parent="1">
          <mxGeometry x="1200" y="330" width="50" height="30" as="geometry" />
        </mxCell>
        <mxCell id="a_6csDNS0PU0sw6D-ZlP-37" value="" style="endArrow=none;html=1;rounded=1;exitX=0.5;exitY=1;exitDx=0;exitDy=0;entryX=0;entryY=0.5;entryDx=0;entryDy=0;" edge="1" parent="1" source="lc_thMG3hRJmn10JfuWX-2" target="a_6csDNS0PU0sw6D-ZlP-5">
          <mxGeometry relative="1" as="geometry">
            <mxPoint x="1090" y="960" as="sourcePoint" />
            <mxPoint x="1250" y="960" as="targetPoint" />
            <Array as="points">
              <mxPoint x="1077" y="990" />
            </Array>
          </mxGeometry>
        </mxCell>
        <mxCell id="l1qlM_hG5PVcN0XE2cs9-34" value="(1, N)" style="text;html=1;align=center;verticalAlign=middle;resizable=0;points=[];autosize=1;strokeColor=none;fillColor=none;" vertex="1" parent="1">
          <mxGeometry x="1290" y="310" width="50" height="30" as="geometry" />
        </mxCell>
        <mxCell id="a_6csDNS0PU0sw6D-ZlP-40" value="(1, N)" style="text;html=1;align=center;verticalAlign=middle;resizable=0;points=[];autosize=1;strokeColor=none;fillColor=none;" vertex="1" parent="1">
          <mxGeometry x="1130" y="960" width="50" height="30" as="geometry" />
        </mxCell>
        <mxCell id="a_6csDNS0PU0sw6D-ZlP-41" value="GenereFilm" style="shape=rhombus;perimeter=rhombusPerimeter;whiteSpace=wrap;html=1;align=center;" vertex="1" parent="1">
          <mxGeometry x="860" y="422.5" width="105" height="55" as="geometry" />
        </mxCell>
        <mxCell id="a_6csDNS0PU0sw6D-ZlP-44" value="(1, 1)" style="text;html=1;align=center;verticalAlign=middle;resizable=0;points=[];autosize=1;strokeColor=none;fillColor=none;" vertex="1" parent="1">
          <mxGeometry x="950" y="422.5" width="50" height="30" as="geometry" />
        </mxCell>
        <mxCell id="a_6csDNS0PU0sw6D-ZlP-45" value="(1, 1)" style="text;html=1;align=center;verticalAlign=middle;resizable=0;points=[];autosize=1;strokeColor=none;fillColor=none;" vertex="1" parent="1">
          <mxGeometry x="830" y="422.5" width="50" height="30" as="geometry" />
        </mxCell>
        <mxCell id="l1qlM_hG5PVcN0XE2cs9-39" value="" style="endArrow=none;html=1;rounded=1;entryX=0.5;entryY=1;entryDx=0;entryDy=0;exitX=0.5;exitY=0;exitDx=0;exitDy=0;" edge="1" parent="1" source="lc_thMG3hRJmn10JfuWX-8" target="l1qlM_hG5PVcN0XE2cs9-37">
          <mxGeometry relative="1" as="geometry">
            <mxPoint x="1445" y="420" as="sourcePoint" />
            <mxPoint x="1490" y="420" as="targetPoint" />
            <Array as="points">
              <mxPoint x="1207" y="410" />
              <mxPoint x="1350" y="410" />
              <mxPoint x="1450" y="410" />
            </Array>
          </mxGeometry>
        </mxCell>
        <mxCell id="a_6csDNS0PU0sw6D-ZlP-48" value="FormatoFilm" style="shape=rhombus;perimeter=rhombusPerimeter;whiteSpace=wrap;html=1;align=center;" vertex="1" parent="1">
          <mxGeometry x="430" y="340" width="120" height="60" as="geometry" />
        </mxCell>
        <mxCell id="a_6csDNS0PU0sw6D-ZlP-49" value="" style="endArrow=none;html=1;rounded=0;exitX=0.5;exitY=1;exitDx=0;exitDy=0;entryX=0;entryY=0.5;entryDx=0;entryDy=0;" edge="1" parent="1" source="lc_thMG3hRJmn10JfuWX-5" target="a_6csDNS0PU0sw6D-ZlP-48">
          <mxGeometry relative="1" as="geometry">
            <mxPoint x="600" y="420" as="sourcePoint" />
            <mxPoint x="760" y="420" as="targetPoint" />
            <Array as="points">
              <mxPoint x="275" y="370" />
            </Array>
          </mxGeometry>
        </mxCell>
        <mxCell id="a_6csDNS0PU0sw6D-ZlP-50" value="" style="endArrow=none;html=1;rounded=0;entryX=0;entryY=0.75;entryDx=0;entryDy=0;exitX=1;exitY=0.5;exitDx=0;exitDy=0;" edge="1" parent="1" source="a_6csDNS0PU0sw6D-ZlP-48" target="l1qlM_hG5PVcN0XE2cs9-1">
          <mxGeometry relative="1" as="geometry">
            <mxPoint x="600" y="420" as="sourcePoint" />
            <mxPoint x="760" y="420" as="targetPoint" />
          </mxGeometry>
        </mxCell>
        <mxCell id="l1qlM_hG5PVcN0XE2cs9-40" value="(0, N)" style="text;html=1;align=center;verticalAlign=middle;resizable=0;points=[];autosize=1;strokeColor=none;fillColor=none;" vertex="1" parent="1">
          <mxGeometry x="1445" y="310" width="50" height="30" as="geometry" />
        </mxCell>
        <mxCell id="l1qlM_hG5PVcN0XE2cs9-41" value="(1, 1)" style="text;html=1;align=center;verticalAlign=middle;resizable=0;points=[];autosize=1;strokeColor=none;fillColor=none;" vertex="1" parent="1">
          <mxGeometry x="1445" y="380" width="50" height="30" as="geometry" />
        </mxCell>
        <mxCell id="a_6csDNS0PU0sw6D-ZlP-51" value="(1, 1)" style="text;html=1;align=center;verticalAlign=middle;resizable=0;points=[];autosize=1;strokeColor=none;fillColor=none;" vertex="1" parent="1">
          <mxGeometry x="380" y="340" width="50" height="30" as="geometry" />
        </mxCell>
        <mxCell id="a_6csDNS0PU0sw6D-ZlP-52" value="(1, 1)" style="text;html=1;align=center;verticalAlign=middle;resizable=0;points=[];autosize=1;strokeColor=none;fillColor=none;" vertex="1" parent="1">
          <mxGeometry x="550" y="340" width="50" height="30" as="geometry" />
        </mxCell>
        <mxCell id="l1qlM_hG5PVcN0XE2cs9-38" value="" style="endArrow=none;html=1;rounded=0;entryX=0.5;entryY=1;entryDx=0;entryDy=0;exitX=0.5;exitY=0;exitDx=0;exitDy=0;" edge="1" parent="1" source="l1qlM_hG5PVcN0XE2cs9-37" target="l1qlM_hG5PVcN0XE2cs9-6">
          <mxGeometry relative="1" as="geometry">
            <mxPoint x="1340" y="300" as="sourcePoint" />
            <mxPoint x="1500" y="300" as="targetPoint" />
          </mxGeometry>
        </mxCell>
        <mxCell id="l1qlM_hG5PVcN0XE2cs9-37" value="AbbFattura" style="shape=rhombus;perimeter=rhombusPerimeter;whiteSpace=wrap;html=1;align=center;" vertex="1" parent="1">
          <mxGeometry x="1400" y="335" width="100" height="50" as="geometry" />
        </mxCell>
        <mxCell id="a_6csDNS0PU0sw6D-ZlP-54" value="" style="endArrow=none;html=1;rounded=0;exitX=1;exitY=0.5;exitDx=0;exitDy=0;entryX=0;entryY=0.5;entryDx=0;entryDy=0;" edge="1" parent="1" source="a_6csDNS0PU0sw6D-ZlP-41" target="lc_thMG3hRJmn10JfuWX-1">
          <mxGeometry relative="1" as="geometry">
            <mxPoint x="830" y="590" as="sourcePoint" />
            <mxPoint x="990" y="590" as="targetPoint" />
            <Array as="points" />
          </mxGeometry>
        </mxCell>
        <mxCell id="a_6csDNS0PU0sw6D-ZlP-56" value="Audio" style="shape=rhombus;perimeter=rhombusPerimeter;whiteSpace=wrap;html=1;align=center;" vertex="1" parent="1">
          <mxGeometry x="560" y="740" width="120" height="60" as="geometry" />
        </mxCell>
        <mxCell id="a_6csDNS0PU0sw6D-ZlP-58" value="Sottotitolo" style="shape=rhombus;perimeter=rhombusPerimeter;whiteSpace=wrap;html=1;align=center;" vertex="1" parent="1">
          <mxGeometry x="360" y="740" width="120" height="60" as="geometry" />
        </mxCell>
        <mxCell id="l1qlM_hG5PVcN0XE2cs9-43" value="Geolocalizzazione" style="shape=rhombus;perimeter=rhombusPerimeter;whiteSpace=wrap;html=1;align=center;" vertex="1" parent="1">
          <mxGeometry x="860" y="860" width="120" height="60" as="geometry" />
        </mxCell>
        <mxCell id="a_6csDNS0PU0sw6D-ZlP-60" value="" style="endArrow=none;html=1;rounded=1;exitX=0.5;exitY=1;exitDx=0;exitDy=0;entryX=0;entryY=0.5;entryDx=0;entryDy=0;" edge="1" parent="1" source="a_6csDNS0PU0sw6D-ZlP-58" target="l1qlM_hG5PVcN0XE2cs9-4">
          <mxGeometry relative="1" as="geometry">
            <mxPoint x="540" y="740" as="sourcePoint" />
            <mxPoint x="700" y="740" as="targetPoint" />
            <Array as="points">
              <mxPoint x="420" y="880" />
            </Array>
          </mxGeometry>
        </mxCell>
        <mxCell id="a_6csDNS0PU0sw6D-ZlP-61" value="" style="endArrow=none;html=1;rounded=1;entryX=0.5;entryY=1;entryDx=0;entryDy=0;exitX=1;exitY=0.5;exitDx=0;exitDy=0;" edge="1" parent="1" source="l1qlM_hG5PVcN0XE2cs9-4" target="a_6csDNS0PU0sw6D-ZlP-56">
          <mxGeometry relative="1" as="geometry">
            <mxPoint x="540" y="740" as="sourcePoint" />
            <mxPoint x="700" y="740" as="targetPoint" />
            <Array as="points">
              <mxPoint x="620" y="880" />
            </Array>
          </mxGeometry>
        </mxCell>
        <mxCell id="a_6csDNS0PU0sw6D-ZlP-62" value="" style="endArrow=none;html=1;rounded=1;entryX=0.25;entryY=1;entryDx=0;entryDy=0;exitX=0.5;exitY=0;exitDx=0;exitDy=0;" edge="1" parent="1" source="a_6csDNS0PU0sw6D-ZlP-58" target="lc_thMG3hRJmn10JfuWX-3">
          <mxGeometry relative="1" as="geometry">
            <mxPoint x="400" y="720" as="sourcePoint" />
            <mxPoint x="560" y="720" as="targetPoint" />
            <Array as="points">
              <mxPoint x="420" y="720" />
              <mxPoint x="495" y="720" />
            </Array>
          </mxGeometry>
        </mxCell>
        <mxCell id="l1qlM_hG5PVcN0XE2cs9-45" value="" style="endArrow=none;html=1;rounded=0;exitX=1;exitY=0.5;exitDx=0;exitDy=0;entryX=0;entryY=0.5;entryDx=0;entryDy=0;" edge="1" parent="1" source="l1qlM_hG5PVcN0XE2cs9-3" target="l1qlM_hG5PVcN0XE2cs9-43">
          <mxGeometry relative="1" as="geometry">
            <mxPoint x="830" y="770" as="sourcePoint" />
            <mxPoint x="990" y="770" as="targetPoint" />
          </mxGeometry>
        </mxCell>
        <mxCell id="l1qlM_hG5PVcN0XE2cs9-46" value="(0, N)" style="text;html=1;align=center;verticalAlign=middle;resizable=0;points=[];autosize=1;strokeColor=none;fillColor=none;" vertex="1" parent="1">
          <mxGeometry x="827" y="860" width="50" height="30" as="geometry" />
        </mxCell>
        <mxCell id="a_6csDNS0PU0sw6D-ZlP-63" value="" style="endArrow=none;html=1;rounded=1;entryX=0.5;entryY=0;entryDx=0;entryDy=0;exitX=0.75;exitY=1;exitDx=0;exitDy=0;" edge="1" parent="1" source="lc_thMG3hRJmn10JfuWX-3" target="a_6csDNS0PU0sw6D-ZlP-56">
          <mxGeometry relative="1" as="geometry">
            <mxPoint x="540" y="740" as="sourcePoint" />
            <mxPoint x="620" y="700" as="targetPoint" />
            <Array as="points">
              <mxPoint x="545" y="720" />
              <mxPoint x="620" y="720" />
            </Array>
          </mxGeometry>
        </mxCell>
        <mxCell id="l1qlM_hG5PVcN0XE2cs9-47" value="(1, 1)" style="text;html=1;align=center;verticalAlign=middle;resizable=0;points=[];autosize=1;strokeColor=none;fillColor=none;" vertex="1" parent="1">
          <mxGeometry x="960" y="860" width="50" height="30" as="geometry" />
        </mxCell>
        <mxCell id="a_6csDNS0PU0sw6D-ZlP-64" value="(1, 1)" style="text;html=1;align=center;verticalAlign=middle;resizable=0;points=[];autosize=1;strokeColor=none;fillColor=none;" vertex="1" parent="1">
          <mxGeometry x="620" y="710" width="50" height="30" as="geometry" />
        </mxCell>
        <mxCell id="a_6csDNS0PU0sw6D-ZlP-65" value="(1, N)" style="text;html=1;align=center;verticalAlign=middle;resizable=0;points=[];autosize=1;strokeColor=none;fillColor=none;" vertex="1" parent="1">
          <mxGeometry x="620" y="800" width="50" height="30" as="geometry" />
        </mxCell>
        <mxCell id="a_6csDNS0PU0sw6D-ZlP-66" value="(1, N)" style="text;html=1;align=center;verticalAlign=middle;resizable=0;points=[];autosize=1;strokeColor=none;fillColor=none;" vertex="1" parent="1">
          <mxGeometry x="370" y="800" width="50" height="30" as="geometry" />
        </mxCell>
        <mxCell id="a_6csDNS0PU0sw6D-ZlP-67" value="(1, 1)" style="text;html=1;align=center;verticalAlign=middle;resizable=0;points=[];autosize=1;strokeColor=none;fillColor=none;" vertex="1" parent="1">
          <mxGeometry x="370" y="710" width="50" height="30" as="geometry" />
        </mxCell>
        <mxCell id="a_6csDNS0PU0sw6D-ZlP-68" value="" style="endArrow=none;html=1;rounded=0;exitX=1;exitY=0.5;exitDx=0;exitDy=0;entryX=0;entryY=0.5;entryDx=0;entryDy=0;" edge="1" parent="1" source="lc_thMG3hRJmn10JfuWX-3" target="a_6csDNS0PU0sw6D-ZlP-69">
          <mxGeometry relative="1" as="geometry">
            <mxPoint x="500" y="710" as="sourcePoint" />
            <mxPoint x="650" y="680" as="targetPoint" />
          </mxGeometry>
        </mxCell>
        <mxCell id="a_6csDNS0PU0sw6D-ZlP-69" value="Posizione" style="shape=rhombus;perimeter=rhombusPerimeter;whiteSpace=wrap;html=1;align=center;" vertex="1" parent="1">
          <mxGeometry x="650" y="620" width="120" height="60" as="geometry" />
        </mxCell>
        <mxCell id="a_6csDNS0PU0sw6D-ZlP-70" value="" style="endArrow=none;html=1;rounded=0;exitX=0.5;exitY=1;exitDx=0;exitDy=0;entryX=0.5;entryY=0;entryDx=0;entryDy=0;" edge="1" parent="1" source="a_6csDNS0PU0sw6D-ZlP-69" target="l1qlM_hG5PVcN0XE2cs9-3">
          <mxGeometry relative="1" as="geometry">
            <mxPoint x="500" y="710" as="sourcePoint" />
            <mxPoint x="660" y="710" as="targetPoint" />
          </mxGeometry>
        </mxCell>
        <mxCell id="a_6csDNS0PU0sw6D-ZlP-71" value="ConnessioneUtente&lt;br&gt;" style="shape=rhombus;perimeter=rhombusPerimeter;whiteSpace=wrap;html=1;align=center;" vertex="1" parent="1">
          <mxGeometry x="877" y="970" width="120" height="60" as="geometry" />
        </mxCell>
        <mxCell id="a_6csDNS0PU0sw6D-ZlP-72" value="" style="endArrow=none;html=1;rounded=0;entryX=0;entryY=0.5;entryDx=0;entryDy=0;exitX=1;exitY=0.5;exitDx=0;exitDy=0;" edge="1" parent="1" source="l1qlM_hG5PVcN0XE2cs9-5" target="a_6csDNS0PU0sw6D-ZlP-71">
          <mxGeometry relative="1" as="geometry">
            <mxPoint x="550" y="730" as="sourcePoint" />
            <mxPoint x="710" y="730" as="targetPoint" />
          </mxGeometry>
        </mxCell>
        <mxCell id="a_6csDNS0PU0sw6D-ZlP-73" value="" style="endArrow=none;html=1;rounded=1;entryX=0.25;entryY=1;entryDx=0;entryDy=0;exitX=1;exitY=0.5;exitDx=0;exitDy=0;" edge="1" parent="1" source="a_6csDNS0PU0sw6D-ZlP-71" target="lc_thMG3hRJmn10JfuWX-2">
          <mxGeometry relative="1" as="geometry">
            <mxPoint x="550" y="730" as="sourcePoint" />
            <mxPoint x="710" y="730" as="targetPoint" />
            <Array as="points">
              <mxPoint x="1052" y="1000" />
            </Array>
          </mxGeometry>
        </mxCell>
        <mxCell id="a_6csDNS0PU0sw6D-ZlP-74" value="(1, 1)" style="text;html=1;align=center;verticalAlign=middle;resizable=0;points=[];autosize=1;strokeColor=none;fillColor=none;" vertex="1" parent="1">
          <mxGeometry x="827" y="970" width="50" height="30" as="geometry" />
        </mxCell>
        <mxCell id="a_6csDNS0PU0sw6D-ZlP-75" value="(1, N)" style="text;html=1;align=center;verticalAlign=middle;resizable=0;points=[];autosize=1;strokeColor=none;fillColor=none;" vertex="1" parent="1">
          <mxGeometry x="997" y="970" width="50" height="30" as="geometry" />
        </mxCell>
        <mxCell id="l1qlM_hG5PVcN0XE2cs9-51" value="" style="endArrow=none;html=1;rounded=1;exitX=0.5;exitY=1;exitDx=0;exitDy=0;entryX=0;entryY=0.5;entryDx=0;entryDy=0;" edge="1" parent="1" source="l1qlM_hG5PVcN0XE2cs9-1" target="a_6csDNS0PU0sw6D-ZlP-41">
          <mxGeometry relative="1" as="geometry">
            <mxPoint x="880" y="470" as="sourcePoint" />
            <mxPoint x="1040" y="470" as="targetPoint" />
            <Array as="points">
              <mxPoint x="840" y="450" />
            </Array>
          </mxGeometry>
        </mxCell>
        <mxCell id="a_6csDNS0PU0sw6D-ZlP-78" value="ConnRestr" style="shape=rhombus;perimeter=rhombusPerimeter;whiteSpace=wrap;html=1;align=center;" vertex="1" parent="1">
          <mxGeometry x="120" y="970" width="120" height="60" as="geometry" />
        </mxCell>
        <mxCell id="a_6csDNS0PU0sw6D-ZlP-79" value="" style="endArrow=none;html=1;rounded=0;entryX=0;entryY=0.5;entryDx=0;entryDy=0;exitX=1;exitY=0.5;exitDx=0;exitDy=0;" edge="1" parent="1" source="a_6csDNS0PU0sw6D-ZlP-78" target="l1qlM_hG5PVcN0XE2cs9-3">
          <mxGeometry relative="1" as="geometry">
            <mxPoint x="660" y="730" as="sourcePoint" />
            <mxPoint x="820" y="730" as="targetPoint" />
            <Array as="points">
              <mxPoint x="600" y="1000" />
              <mxPoint x="600" y="920" />
              <mxPoint x="650" y="920" />
              <mxPoint x="650" y="890" />
            </Array>
          </mxGeometry>
        </mxCell>
        <mxCell id="l1qlM_hG5PVcN0XE2cs9-53" value="" style="endArrow=none;html=1;rounded=1;entryX=0.121;entryY=0.979;entryDx=0;entryDy=0;entryPerimeter=0;exitX=0.5;exitY=0;exitDx=0;exitDy=0;" edge="1" parent="1" source="l1qlM_hG5PVcN0XE2cs9-52">
          <mxGeometry relative="1" as="geometry">
            <mxPoint x="647.9" y="452.72999999999996" as="sourcePoint" />
            <mxPoint x="810.0000000000001" y="380.00000000000006" as="targetPoint" />
          </mxGeometry>
        </mxCell>
        <mxCell id="a_6csDNS0PU0sw6D-ZlP-80" value="" style="endArrow=none;html=1;rounded=0;entryX=0.5;entryY=0;entryDx=0;entryDy=0;exitX=0.5;exitY=1;exitDx=0;exitDy=0;" edge="1" parent="1" source="lc_thMG3hRJmn10JfuWX-6" target="a_6csDNS0PU0sw6D-ZlP-78">
          <mxGeometry relative="1" as="geometry">
            <mxPoint x="370" y="790" as="sourcePoint" />
            <mxPoint x="530" y="790" as="targetPoint" />
          </mxGeometry>
        </mxCell>
        <mxCell id="a_6csDNS0PU0sw6D-ZlP-81" value="FormRestr" style="shape=rhombus;perimeter=rhombusPerimeter;whiteSpace=wrap;html=1;align=center;" vertex="1" parent="1">
          <mxGeometry x="120" y="290" width="120" height="60" as="geometry" />
        </mxCell>
        <mxCell id="l1qlM_hG5PVcN0XE2cs9-54" value="" style="endArrow=none;html=1;rounded=1;exitX=0.5;exitY=1;exitDx=0;exitDy=0;entryX=0;entryY=0.5;entryDx=0;entryDy=0;" edge="1" parent="1" source="l1qlM_hG5PVcN0XE2cs9-52" target="l1qlM_hG5PVcN0XE2cs9-18">
          <mxGeometry relative="1" as="geometry">
            <mxPoint x="800" y="630" as="sourcePoint" />
            <mxPoint x="810" y="760" as="targetPoint" />
            <Array as="points">
              <mxPoint x="810" y="760" />
            </Array>
          </mxGeometry>
        </mxCell>
        <mxCell id="l1qlM_hG5PVcN0XE2cs9-52" value="Critica" style="shape=rhombus;perimeter=rhombusPerimeter;whiteSpace=wrap;html=1;align=center;" vertex="1" parent="1">
          <mxGeometry x="750" y="535" width="120" height="60" as="geometry" />
        </mxCell>
        <mxCell id="l1qlM_hG5PVcN0XE2cs9-56" value="(0, N)" style="text;html=1;align=center;verticalAlign=middle;resizable=0;points=[];autosize=1;strokeColor=none;fillColor=none;" vertex="1" parent="1">
          <mxGeometry x="810" y="510" width="50" height="30" as="geometry" />
        </mxCell>
        <mxCell id="l1qlM_hG5PVcN0XE2cs9-55" value="(0, N)" style="text;html=1;align=center;verticalAlign=middle;resizable=0;points=[];autosize=1;strokeColor=none;fillColor=none;" vertex="1" parent="1">
          <mxGeometry x="810" y="590" width="50" height="30" as="geometry" />
        </mxCell>
        <mxCell id="a_6csDNS0PU0sw6D-ZlP-82" value="" style="endArrow=none;html=1;rounded=0;exitX=0.5;exitY=0;exitDx=0;exitDy=0;entryX=0.5;entryY=1;entryDx=0;entryDy=0;" edge="1" parent="1" source="lc_thMG3hRJmn10JfuWX-6" target="a_6csDNS0PU0sw6D-ZlP-81">
          <mxGeometry relative="1" as="geometry">
            <mxPoint x="410" y="290" as="sourcePoint" />
            <mxPoint x="570" y="290" as="targetPoint" />
          </mxGeometry>
        </mxCell>
        <mxCell id="a_6csDNS0PU0sw6D-ZlP-86" value="" style="endArrow=none;html=1;rounded=0;exitX=0.5;exitY=0;exitDx=0;exitDy=0;entryX=0;entryY=0.5;entryDx=0;entryDy=0;" edge="1" parent="1" source="a_6csDNS0PU0sw6D-ZlP-81" target="lc_thMG3hRJmn10JfuWX-5">
          <mxGeometry relative="1" as="geometry">
            <mxPoint x="400" y="520" as="sourcePoint" />
            <mxPoint x="560" y="520" as="targetPoint" />
            <Array as="points">
              <mxPoint x="180" y="195" />
            </Array>
          </mxGeometry>
        </mxCell>
      </root>
    </mxGraphModel>
  </diagram>
</mxfile>
